<mxfile host="app.diagrams.net" modified="2023-10-18T12:04:50.014Z" agent="Mozilla/5.0 (Windows NT 10.0; WOW64) AppleWebKit/537.36 (KHTML, like Gecko) Chrome/94.0.4606.71 Safari/537.36" etag="EuePovVA3JyqNGYrCvxH" version="22.0.4" type="device">
  <diagram id="C5RBs43oDa-KdzZeNtuy" name="Page-1">
    <mxGraphModel dx="3004" dy="1110" grid="1" gridSize="10" guides="1" tooltips="1" connect="1" arrows="1" fold="1" page="1" pageScale="1" pageWidth="827" pageHeight="1169" math="0" shadow="0">
      <root>
        <mxCell id="WIyWlLk6GJQsqaUBKTNV-0" />
        <mxCell id="WIyWlLk6GJQsqaUBKTNV-1" parent="WIyWlLk6GJQsqaUBKTNV-0" />
        <mxCell id="zkfFHV4jXpPFQw0GAbJ--0" value="&lt;&lt;interface&gt;&gt;&#xa;FeatureDetector" style="swimlane;fontStyle=2;align=center;verticalAlign=top;childLayout=stackLayout;horizontal=1;startSize=40;horizontalStack=0;resizeParent=1;resizeLast=0;collapsible=1;marginBottom=0;rounded=0;shadow=0;strokeWidth=1;" parent="WIyWlLk6GJQsqaUBKTNV-1" vertex="1">
          <mxGeometry x="10" y="100" width="740" height="236" as="geometry">
            <mxRectangle x="20" y="50" width="160" height="26" as="alternateBounds" />
          </mxGeometry>
        </mxCell>
        <mxCell id="zkfFHV4jXpPFQw0GAbJ--1" value="  " style="text;align=left;verticalAlign=top;spacingLeft=4;spacingRight=4;overflow=hidden;rotatable=0;points=[[0,0.5],[1,0.5]];portConstraint=eastwest;" parent="zkfFHV4jXpPFQw0GAbJ--0" vertex="1">
          <mxGeometry y="40" width="740" height="26" as="geometry" />
        </mxCell>
        <mxCell id="zkfFHV4jXpPFQw0GAbJ--4" value="" style="line;html=1;strokeWidth=1;align=left;verticalAlign=middle;spacingTop=-1;spacingLeft=3;spacingRight=3;rotatable=0;labelPosition=right;points=[];portConstraint=eastwest;" parent="zkfFHV4jXpPFQw0GAbJ--0" vertex="1">
          <mxGeometry y="66" width="740" height="8" as="geometry" />
        </mxCell>
        <mxCell id="zkfFHV4jXpPFQw0GAbJ--2" value="+ ~FeatureDetector();" style="text;align=left;verticalAlign=top;spacingLeft=4;spacingRight=4;overflow=hidden;rotatable=0;points=[[0,0.5],[1,0.5]];portConstraint=eastwest;rounded=0;shadow=0;html=0;fontStyle=2" parent="zkfFHV4jXpPFQw0GAbJ--0" vertex="1">
          <mxGeometry y="74" width="740" height="26" as="geometry" />
        </mxCell>
        <mxCell id="-PGbvV9lR7qu6nxP3S9m-42" value="+ detect( const Mat&amp; image, CV_OUT vector&lt;KeyPoint&gt;&amp; keypoints, const Mat&amp; mask=Mat() ) const: void" style="text;align=left;verticalAlign=top;spacingLeft=4;spacingRight=4;overflow=hidden;rotatable=0;points=[[0,0.5],[1,0.5]];portConstraint=eastwest;rounded=0;shadow=0;html=0;" parent="zkfFHV4jXpPFQw0GAbJ--0" vertex="1">
          <mxGeometry y="100" width="740" height="26" as="geometry" />
        </mxCell>
        <mxCell id="zkfFHV4jXpPFQw0GAbJ--3" value="+ detect( const vector&lt;Mat&gt;&amp; images, vector&lt;vector&lt;KeyPoint&gt; &gt;&amp; keypoints, const vector&lt;Mat&gt;&amp; masks=vector&lt;Mat&gt;() ) const: void" style="text;align=left;verticalAlign=top;spacingLeft=4;spacingRight=4;overflow=hidden;rotatable=0;points=[[0,0.5],[1,0.5]];portConstraint=eastwest;rounded=0;shadow=0;html=0;" parent="zkfFHV4jXpPFQw0GAbJ--0" vertex="1">
          <mxGeometry y="126" width="740" height="22" as="geometry" />
        </mxCell>
        <mxCell id="-PGbvV9lR7qu6nxP3S9m-0" value="+ empty() const: bool" style="text;align=left;verticalAlign=top;spacingLeft=4;spacingRight=4;overflow=hidden;rotatable=0;points=[[0,0.5],[1,0.5]];portConstraint=eastwest;rounded=0;shadow=0;html=0;fontStyle=2" parent="zkfFHV4jXpPFQw0GAbJ--0" vertex="1">
          <mxGeometry y="148" width="740" height="22" as="geometry" />
        </mxCell>
        <mxCell id="-PGbvV9lR7qu6nxP3S9m-1" value="+ create( const string&amp; detectorType ): Ptr&lt;FeatureDetector&gt; " style="text;align=left;verticalAlign=top;spacingLeft=4;spacingRight=4;overflow=hidden;rotatable=0;points=[[0,0.5],[1,0.5]];portConstraint=eastwest;rounded=0;shadow=0;html=0;fontStyle=4" parent="zkfFHV4jXpPFQw0GAbJ--0" vertex="1">
          <mxGeometry y="170" width="740" height="22" as="geometry" />
        </mxCell>
        <mxCell id="-PGbvV9lR7qu6nxP3S9m-2" value="# detectImpl( const Mat&amp; image, vector&lt;KeyPoint&gt;&amp; keypoints, const Mat&amp; mask=Mat() ) const = 0: void" style="text;align=left;verticalAlign=top;spacingLeft=4;spacingRight=4;overflow=hidden;rotatable=0;points=[[0,0.5],[1,0.5]];portConstraint=eastwest;rounded=0;shadow=0;html=0;fontStyle=2" parent="zkfFHV4jXpPFQw0GAbJ--0" vertex="1">
          <mxGeometry y="192" width="740" height="22" as="geometry" />
        </mxCell>
        <mxCell id="-PGbvV9lR7qu6nxP3S9m-3" value="# removeInvalidPoints( const Mat&amp; mask, vector&lt;KeyPoint&gt;&amp; keypoints ): void" style="text;align=left;verticalAlign=top;spacingLeft=4;spacingRight=4;overflow=hidden;rotatable=0;points=[[0,0.5],[1,0.5]];portConstraint=eastwest;rounded=0;shadow=0;html=0;fontStyle=4" parent="zkfFHV4jXpPFQw0GAbJ--0" vertex="1">
          <mxGeometry y="214" width="740" height="22" as="geometry" />
        </mxCell>
        <mxCell id="zkfFHV4jXpPFQw0GAbJ--6" value="FastFeatureDetector" style="swimlane;fontStyle=0;align=center;verticalAlign=top;childLayout=stackLayout;horizontal=1;startSize=26;horizontalStack=0;resizeParent=1;resizeLast=0;collapsible=1;marginBottom=0;rounded=0;shadow=0;strokeWidth=1;" parent="WIyWlLk6GJQsqaUBKTNV-1" vertex="1">
          <mxGeometry x="10" y="409" width="550" height="176" as="geometry">
            <mxRectangle x="130" y="380" width="160" height="26" as="alternateBounds" />
          </mxGeometry>
        </mxCell>
        <mxCell id="zkfFHV4jXpPFQw0GAbJ--7" value="+ { TYPE_5_8 = 0, TYPE_7_12 = 1, TYPE_9_16 = 2}: enum" style="text;align=left;verticalAlign=top;spacingLeft=4;spacingRight=4;overflow=hidden;rotatable=0;points=[[0,0.5],[1,0.5]];portConstraint=eastwest;" parent="zkfFHV4jXpPFQw0GAbJ--6" vertex="1">
          <mxGeometry y="26" width="550" height="26" as="geometry" />
        </mxCell>
        <mxCell id="zkfFHV4jXpPFQw0GAbJ--8" value="# threshold: int" style="text;align=left;verticalAlign=top;spacingLeft=4;spacingRight=4;overflow=hidden;rotatable=0;points=[[0,0.5],[1,0.5]];portConstraint=eastwest;rounded=0;shadow=0;html=0;" parent="zkfFHV4jXpPFQw0GAbJ--6" vertex="1">
          <mxGeometry y="52" width="550" height="28" as="geometry" />
        </mxCell>
        <mxCell id="-PGbvV9lR7qu6nxP3S9m-6" value="# nonmaxSuppression: bool" style="text;align=left;verticalAlign=top;spacingLeft=4;spacingRight=4;overflow=hidden;rotatable=0;points=[[0,0.5],[1,0.5]];portConstraint=eastwest;rounded=0;shadow=0;html=0;" parent="zkfFHV4jXpPFQw0GAbJ--6" vertex="1">
          <mxGeometry y="80" width="550" height="28" as="geometry" />
        </mxCell>
        <mxCell id="zkfFHV4jXpPFQw0GAbJ--9" value="" style="line;html=1;strokeWidth=1;align=left;verticalAlign=middle;spacingTop=-1;spacingLeft=3;spacingRight=3;rotatable=0;labelPosition=right;points=[];portConstraint=eastwest;" parent="zkfFHV4jXpPFQw0GAbJ--6" vertex="1">
          <mxGeometry y="108" width="550" height="12" as="geometry" />
        </mxCell>
        <mxCell id="-PGbvV9lR7qu6nxP3S9m-14" value="+ FastFeatureDetector( int threshold=10, bool nonmaxSuppression=true );" style="text;align=left;verticalAlign=top;spacingLeft=4;spacingRight=4;overflow=hidden;rotatable=0;points=[[0,0.5],[1,0.5]];portConstraint=eastwest;rounded=0;shadow=0;html=0;fontStyle=2" parent="zkfFHV4jXpPFQw0GAbJ--6" vertex="1">
          <mxGeometry y="120" width="550" height="28" as="geometry" />
        </mxCell>
        <mxCell id="-PGbvV9lR7qu6nxP3S9m-32" value="# detectImpl( const Mat&amp; image, vector&lt;KeyPoint&gt;&amp; keypoints, const Mat&amp; mask=Mat() ) const: void" style="text;align=left;verticalAlign=top;spacingLeft=4;spacingRight=4;overflow=hidden;rotatable=0;points=[[0,0.5],[1,0.5]];portConstraint=eastwest;rounded=0;shadow=0;html=0;fontStyle=2" parent="zkfFHV4jXpPFQw0GAbJ--6" vertex="1">
          <mxGeometry y="148" width="550" height="28" as="geometry" />
        </mxCell>
        <mxCell id="zkfFHV4jXpPFQw0GAbJ--13" value="StarDetector" style="swimlane;fontStyle=0;align=center;verticalAlign=top;childLayout=stackLayout;horizontal=1;startSize=26;horizontalStack=0;resizeParent=1;resizeLast=0;collapsible=1;marginBottom=0;rounded=0;shadow=0;strokeWidth=1;" parent="WIyWlLk6GJQsqaUBKTNV-1" vertex="1">
          <mxGeometry x="10" y="610" width="550" height="286" as="geometry">
            <mxRectangle x="340" y="380" width="170" height="26" as="alternateBounds" />
          </mxGeometry>
        </mxCell>
        <mxCell id="zkfFHV4jXpPFQw0GAbJ--14" value="# maxSize: int" style="text;align=left;verticalAlign=top;spacingLeft=4;spacingRight=4;overflow=hidden;rotatable=0;points=[[0,0.5],[1,0.5]];portConstraint=eastwest;" parent="zkfFHV4jXpPFQw0GAbJ--13" vertex="1">
          <mxGeometry y="26" width="550" height="26" as="geometry" />
        </mxCell>
        <mxCell id="-PGbvV9lR7qu6nxP3S9m-16" value="# responseThreshold: int" style="text;align=left;verticalAlign=top;spacingLeft=4;spacingRight=4;overflow=hidden;rotatable=0;points=[[0,0.5],[1,0.5]];portConstraint=eastwest;" parent="zkfFHV4jXpPFQw0GAbJ--13" vertex="1">
          <mxGeometry y="52" width="550" height="26" as="geometry" />
        </mxCell>
        <mxCell id="-PGbvV9lR7qu6nxP3S9m-17" value="# lineThresholdProjected: int" style="text;align=left;verticalAlign=top;spacingLeft=4;spacingRight=4;overflow=hidden;rotatable=0;points=[[0,0.5],[1,0.5]];portConstraint=eastwest;" parent="zkfFHV4jXpPFQw0GAbJ--13" vertex="1">
          <mxGeometry y="78" width="550" height="26" as="geometry" />
        </mxCell>
        <mxCell id="-PGbvV9lR7qu6nxP3S9m-18" value="# lineThresholdBinarize: int" style="text;align=left;verticalAlign=top;spacingLeft=4;spacingRight=4;overflow=hidden;rotatable=0;points=[[0,0.5],[1,0.5]];portConstraint=eastwest;" parent="zkfFHV4jXpPFQw0GAbJ--13" vertex="1">
          <mxGeometry y="104" width="550" height="26" as="geometry" />
        </mxCell>
        <mxCell id="-PGbvV9lR7qu6nxP3S9m-19" value="# suppressNonmaxSize: int" style="text;align=left;verticalAlign=top;spacingLeft=4;spacingRight=4;overflow=hidden;rotatable=0;points=[[0,0.5],[1,0.5]];portConstraint=eastwest;" parent="zkfFHV4jXpPFQw0GAbJ--13" vertex="1">
          <mxGeometry y="130" width="550" height="26" as="geometry" />
        </mxCell>
        <mxCell id="zkfFHV4jXpPFQw0GAbJ--15" value="" style="line;html=1;strokeWidth=1;align=left;verticalAlign=middle;spacingTop=-1;spacingLeft=3;spacingRight=3;rotatable=0;labelPosition=right;points=[];portConstraint=eastwest;" parent="zkfFHV4jXpPFQw0GAbJ--13" vertex="1">
          <mxGeometry y="156" width="550" height="8" as="geometry" />
        </mxCell>
        <mxCell id="-PGbvV9lR7qu6nxP3S9m-23" value="+ StarDetector(int _maxSize=45, int _responseThreshold=30,int _lineThresholdProjected=10,&#xa;int _lineThresholdBinarized=8,int _suppressNonmaxSize=5);" style="text;align=left;verticalAlign=top;spacingLeft=4;spacingRight=4;overflow=hidden;rotatable=0;points=[[0,0.5],[1,0.5]];portConstraint=eastwest;" parent="zkfFHV4jXpPFQw0GAbJ--13" vertex="1">
          <mxGeometry y="164" width="550" height="46" as="geometry" />
        </mxCell>
        <mxCell id="CbinNUqj5bDb-ycrlaXT-25" value="+ operator()(const&#xa;Mat&amp; image,CV_OUT vector&lt;KeyPoint&gt;&amp; keypoints) const: void " style="text;align=left;verticalAlign=top;spacingLeft=4;spacingRight=4;overflow=hidden;rotatable=0;points=[[0,0.5],[1,0.5]];portConstraint=eastwest;" parent="zkfFHV4jXpPFQw0GAbJ--13" vertex="1">
          <mxGeometry y="210" width="550" height="46" as="geometry" />
        </mxCell>
        <mxCell id="6x0onaPDvPLNviay9bBa-60" value="# detectImpl( const Mat&amp; image, vector&lt;KeyPoint&gt;&amp; keypoints, const Mat&amp; mask=Mat() ) const: void" style="text;align=left;verticalAlign=top;spacingLeft=4;spacingRight=4;overflow=hidden;rotatable=0;points=[[0,0.5],[1,0.5]];portConstraint=eastwest;" parent="zkfFHV4jXpPFQw0GAbJ--13" vertex="1">
          <mxGeometry y="256" width="550" height="30" as="geometry" />
        </mxCell>
        <mxCell id="6x0onaPDvPLNviay9bBa-36" value="DescriptorExtractor" style="swimlane;fontStyle=0;align=center;verticalAlign=top;childLayout=stackLayout;horizontal=1;startSize=26;horizontalStack=0;resizeParent=1;resizeLast=0;collapsible=1;marginBottom=0;rounded=0;shadow=0;strokeWidth=1;" parent="WIyWlLk6GJQsqaUBKTNV-1" vertex="1">
          <mxGeometry x="890" y="100" width="550" height="130" as="geometry">
            <mxRectangle x="130" y="380" width="160" height="26" as="alternateBounds" />
          </mxGeometry>
        </mxCell>
        <mxCell id="6x0onaPDvPLNviay9bBa-40" value="" style="line;html=1;strokeWidth=1;align=left;verticalAlign=middle;spacingTop=-1;spacingLeft=3;spacingRight=3;rotatable=0;labelPosition=right;points=[];portConstraint=eastwest;" parent="6x0onaPDvPLNviay9bBa-36" vertex="1">
          <mxGeometry y="26" width="550" height="12" as="geometry" />
        </mxCell>
        <mxCell id="6x0onaPDvPLNviay9bBa-55" value="+ compute(): void" style="text;align=left;verticalAlign=top;spacingLeft=4;spacingRight=4;overflow=hidden;rotatable=0;points=[[0,0.5],[1,0.5]];portConstraint=eastwest;rounded=0;shadow=0;html=0;fontStyle=2" parent="6x0onaPDvPLNviay9bBa-36" vertex="1">
          <mxGeometry y="38" width="550" height="28" as="geometry" />
        </mxCell>
        <mxCell id="6x0onaPDvPLNviay9bBa-54" value="+ create(): Ptr&lt;DescriptorExtractor&gt; " style="text;align=left;verticalAlign=top;spacingLeft=4;spacingRight=4;overflow=hidden;rotatable=0;points=[[0,0.5],[1,0.5]];portConstraint=eastwest;rounded=0;shadow=0;html=0;fontStyle=4" parent="6x0onaPDvPLNviay9bBa-36" vertex="1">
          <mxGeometry y="66" width="550" height="28" as="geometry" />
        </mxCell>
        <mxCell id="6x0onaPDvPLNviay9bBa-41" value="# computeImpl(): void" style="text;align=left;verticalAlign=top;spacingLeft=4;spacingRight=4;overflow=hidden;rotatable=0;points=[[0,0.5],[1,0.5]];portConstraint=eastwest;rounded=0;shadow=0;html=0;fontStyle=2" parent="6x0onaPDvPLNviay9bBa-36" vertex="1">
          <mxGeometry y="94" width="550" height="28" as="geometry" />
        </mxCell>
        <mxCell id="6x0onaPDvPLNviay9bBa-44" value="Feature2D" style="swimlane;fontStyle=0;align=center;verticalAlign=top;childLayout=stackLayout;horizontal=1;startSize=26;horizontalStack=0;resizeParent=1;resizeLast=0;collapsible=1;marginBottom=0;rounded=0;shadow=0;strokeWidth=1;" parent="WIyWlLk6GJQsqaUBKTNV-1" vertex="1">
          <mxGeometry x="890" y="320" width="550" height="100" as="geometry">
            <mxRectangle x="340" y="380" width="170" height="26" as="alternateBounds" />
          </mxGeometry>
        </mxCell>
        <mxCell id="6x0onaPDvPLNviay9bBa-50" value="" style="line;html=1;strokeWidth=1;align=left;verticalAlign=middle;spacingTop=-1;spacingLeft=3;spacingRight=3;rotatable=0;labelPosition=right;points=[];portConstraint=eastwest;" parent="6x0onaPDvPLNviay9bBa-44" vertex="1">
          <mxGeometry y="26" width="550" height="8" as="geometry" />
        </mxCell>
        <mxCell id="6x0onaPDvPLNviay9bBa-51" value="+ compute(): void" style="text;align=left;verticalAlign=top;spacingLeft=4;spacingRight=4;overflow=hidden;rotatable=0;points=[[0,0.5],[1,0.5]];portConstraint=eastwest;" parent="6x0onaPDvPLNviay9bBa-44" vertex="1">
          <mxGeometry y="34" width="550" height="26" as="geometry" />
        </mxCell>
        <mxCell id="6x0onaPDvPLNviay9bBa-52" value="+ create(): Ptr&lt;Feature2D&gt; " style="text;align=left;verticalAlign=top;spacingLeft=4;spacingRight=4;overflow=hidden;rotatable=0;points=[[0,0.5],[1,0.5]];portConstraint=eastwest;" parent="6x0onaPDvPLNviay9bBa-44" vertex="1">
          <mxGeometry y="60" width="550" height="30" as="geometry" />
        </mxCell>
        <mxCell id="6x0onaPDvPLNviay9bBa-63" value="SURF" style="swimlane;fontStyle=0;align=center;verticalAlign=top;childLayout=stackLayout;horizontal=1;startSize=26;horizontalStack=0;resizeParent=1;resizeLast=0;collapsible=1;marginBottom=0;rounded=0;shadow=0;strokeWidth=1;" parent="WIyWlLk6GJQsqaUBKTNV-1" vertex="1">
          <mxGeometry x="1240" y="496" width="550" height="400" as="geometry">
            <mxRectangle x="340" y="380" width="170" height="26" as="alternateBounds" />
          </mxGeometry>
        </mxCell>
        <mxCell id="CbinNUqj5bDb-ycrlaXT-56" value="+ hessianThreshold: double" style="text;align=left;verticalAlign=top;spacingLeft=4;spacingRight=4;overflow=hidden;rotatable=0;points=[[0,0.5],[1,0.5]];portConstraint=eastwest;" parent="6x0onaPDvPLNviay9bBa-63" vertex="1">
          <mxGeometry y="26" width="550" height="26" as="geometry" />
        </mxCell>
        <mxCell id="CbinNUqj5bDb-ycrlaXT-57" value="+ nOctaves: int" style="text;align=left;verticalAlign=top;spacingLeft=4;spacingRight=4;overflow=hidden;rotatable=0;points=[[0,0.5],[1,0.5]];portConstraint=eastwest;" parent="6x0onaPDvPLNviay9bBa-63" vertex="1">
          <mxGeometry y="52" width="550" height="26" as="geometry" />
        </mxCell>
        <mxCell id="CbinNUqj5bDb-ycrlaXT-58" value="+ nOctaveLayers: int" style="text;align=left;verticalAlign=top;spacingLeft=4;spacingRight=4;overflow=hidden;rotatable=0;points=[[0,0.5],[1,0.5]];portConstraint=eastwest;" parent="6x0onaPDvPLNviay9bBa-63" vertex="1">
          <mxGeometry y="78" width="550" height="26" as="geometry" />
        </mxCell>
        <mxCell id="CbinNUqj5bDb-ycrlaXT-59" value="+ extended: bool " style="text;align=left;verticalAlign=top;spacingLeft=4;spacingRight=4;overflow=hidden;rotatable=0;points=[[0,0.5],[1,0.5]];portConstraint=eastwest;" parent="6x0onaPDvPLNviay9bBa-63" vertex="1">
          <mxGeometry y="104" width="550" height="26" as="geometry" />
        </mxCell>
        <mxCell id="CbinNUqj5bDb-ycrlaXT-60" value="+ upright: bool " style="text;align=left;verticalAlign=top;spacingLeft=4;spacingRight=4;overflow=hidden;rotatable=0;points=[[0,0.5],[1,0.5]];portConstraint=eastwest;" parent="6x0onaPDvPLNviay9bBa-63" vertex="1">
          <mxGeometry y="130" width="550" height="26" as="geometry" />
        </mxCell>
        <mxCell id="6x0onaPDvPLNviay9bBa-69" value="" style="line;html=1;strokeWidth=1;align=left;verticalAlign=middle;spacingTop=-1;spacingLeft=3;spacingRight=3;rotatable=0;labelPosition=right;points=[];portConstraint=eastwest;" parent="6x0onaPDvPLNviay9bBa-63" vertex="1">
          <mxGeometry y="156" width="550" height="18" as="geometry" />
        </mxCell>
        <mxCell id="6x0onaPDvPLNviay9bBa-70" value="+ descriptorSize() const: int" style="text;align=left;verticalAlign=top;spacingLeft=4;spacingRight=4;overflow=hidden;rotatable=0;points=[[0,0.5],[1,0.5]];portConstraint=eastwest;" parent="6x0onaPDvPLNviay9bBa-63" vertex="1">
          <mxGeometry y="174" width="550" height="26" as="geometry" />
        </mxCell>
        <mxCell id="6x0onaPDvPLNviay9bBa-71" value="+ descriptorType() const: int" style="text;align=left;verticalAlign=top;spacingLeft=4;spacingRight=4;overflow=hidden;rotatable=0;points=[[0,0.5],[1,0.5]];portConstraint=eastwest;" parent="6x0onaPDvPLNviay9bBa-63" vertex="1">
          <mxGeometry y="200" width="550" height="30" as="geometry" />
        </mxCell>
        <mxCell id="CbinNUqj5bDb-ycrlaXT-53" value="+ SURF(double hessianThreshold,int nOctaves=4, int nOctaveLayers=2,bool extended=true, &#xa;bool upright=false): explicit" style="text;align=left;verticalAlign=top;spacingLeft=4;spacingRight=4;overflow=hidden;rotatable=0;points=[[0,0.5],[1,0.5]];portConstraint=eastwest;" parent="6x0onaPDvPLNviay9bBa-63" vertex="1">
          <mxGeometry y="230" width="550" height="40" as="geometry" />
        </mxCell>
        <mxCell id="CbinNUqj5bDb-ycrlaXT-51" value="+ operator()(InputArray image, InputArray mask, vector&lt;KeyPoint&gt;&amp; keypoints) const: int" style="text;align=left;verticalAlign=top;spacingLeft=4;spacingRight=4;overflow=hidden;rotatable=0;points=[[0,0.5],[1,0.5]];portConstraint=eastwest;" parent="6x0onaPDvPLNviay9bBa-63" vertex="1">
          <mxGeometry y="270" width="550" height="30" as="geometry" />
        </mxCell>
        <mxCell id="CbinNUqj5bDb-ycrlaXT-52" value="+ operator()(InputArray image, InputArray mask, vector&lt;KeyPoint&gt;&amp; keypoints,OutputArray descriptors, &#xa;bool useProvidedKeypoints=false) const: int" style="text;align=left;verticalAlign=top;spacingLeft=4;spacingRight=4;overflow=hidden;rotatable=0;points=[[0,0.5],[1,0.5]];portConstraint=eastwest;" parent="6x0onaPDvPLNviay9bBa-63" vertex="1">
          <mxGeometry y="300" width="550" height="40" as="geometry" />
        </mxCell>
        <mxCell id="CbinNUqj5bDb-ycrlaXT-49" value="# computeImpl( const Mat&amp; image, vector&lt;KeyPoint&gt;&amp; keypoints, Mat&amp; descriptors) const: void" style="text;align=left;verticalAlign=top;spacingLeft=4;spacingRight=4;overflow=hidden;rotatable=0;points=[[0,0.5],[1,0.5]];portConstraint=eastwest;" parent="6x0onaPDvPLNviay9bBa-63" vertex="1">
          <mxGeometry y="340" width="550" height="30" as="geometry" />
        </mxCell>
        <mxCell id="CbinNUqj5bDb-ycrlaXT-50" value="# detectImpl( const Mat&amp; image, vector&lt;KeyPoint&gt;&amp; keypoints, const Mat&amp; mask=Mat() ) const: void" style="text;align=left;verticalAlign=top;spacingLeft=4;spacingRight=4;overflow=hidden;rotatable=0;points=[[0,0.5],[1,0.5]];portConstraint=eastwest;" parent="6x0onaPDvPLNviay9bBa-63" vertex="1">
          <mxGeometry y="370" width="550" height="30" as="geometry" />
        </mxCell>
        <mxCell id="CbinNUqj5bDb-ycrlaXT-31" value="" style="endArrow=block;dashed=1;endFill=0;endSize=12;html=1;rounded=0;" parent="6x0onaPDvPLNviay9bBa-63" edge="1">
          <mxGeometry width="160" relative="1" as="geometry">
            <mxPoint x="130" y="4" as="sourcePoint" />
            <mxPoint x="130" y="-76" as="targetPoint" />
            <Array as="points">
              <mxPoint x="130" y="-40" />
            </Array>
          </mxGeometry>
        </mxCell>
        <mxCell id="CbinNUqj5bDb-ycrlaXT-0" value="ORB" style="swimlane;fontStyle=1;align=center;verticalAlign=top;childLayout=stackLayout;horizontal=1;startSize=26;horizontalStack=0;resizeParent=1;resizeParentMax=0;resizeLast=0;collapsible=1;marginBottom=0;whiteSpace=wrap;html=1;" parent="WIyWlLk6GJQsqaUBKTNV-1" vertex="1">
          <mxGeometry x="630" y="530" width="590" height="486" as="geometry" />
        </mxCell>
        <object label="+ {kBytes =32,HARRIS_SCORE=0,FAST_SCORE=1}:enum" id="CbinNUqj5bDb-ycrlaXT-4">
          <mxCell style="text;strokeColor=none;fillColor=none;align=left;verticalAlign=top;spacingLeft=4;spacingRight=4;overflow=hidden;rotatable=0;points=[[0,0.5],[1,0.5]];portConstraint=eastwest;whiteSpace=wrap;html=1;" parent="CbinNUqj5bDb-ycrlaXT-0" vertex="1">
            <mxGeometry y="26" width="590" height="26" as="geometry" />
          </mxCell>
        </object>
        <object label="# nfeatures: int" id="CbinNUqj5bDb-ycrlaXT-10">
          <mxCell style="text;strokeColor=none;fillColor=none;align=left;verticalAlign=top;spacingLeft=4;spacingRight=4;overflow=hidden;rotatable=0;points=[[0,0.5],[1,0.5]];portConstraint=eastwest;whiteSpace=wrap;html=1;" parent="CbinNUqj5bDb-ycrlaXT-0" vertex="1">
            <mxGeometry y="52" width="590" height="26" as="geometry" />
          </mxCell>
        </object>
        <object label="#&amp;nbsp;scaleFactor: double" id="CbinNUqj5bDb-ycrlaXT-11">
          <mxCell style="text;strokeColor=none;fillColor=none;align=left;verticalAlign=top;spacingLeft=4;spacingRight=4;overflow=hidden;rotatable=0;points=[[0,0.5],[1,0.5]];portConstraint=eastwest;whiteSpace=wrap;html=1;" parent="CbinNUqj5bDb-ycrlaXT-0" vertex="1">
            <mxGeometry y="78" width="590" height="26" as="geometry" />
          </mxCell>
        </object>
        <object label="#&amp;nbsp;nlevels: int" id="CbinNUqj5bDb-ycrlaXT-12">
          <mxCell style="text;strokeColor=none;fillColor=none;align=left;verticalAlign=top;spacingLeft=4;spacingRight=4;overflow=hidden;rotatable=0;points=[[0,0.5],[1,0.5]];portConstraint=eastwest;whiteSpace=wrap;html=1;" parent="CbinNUqj5bDb-ycrlaXT-0" vertex="1">
            <mxGeometry y="104" width="590" height="26" as="geometry" />
          </mxCell>
        </object>
        <object label="#&amp;nbsp;edgeThreshold: int" id="CbinNUqj5bDb-ycrlaXT-13">
          <mxCell style="text;strokeColor=none;fillColor=none;align=left;verticalAlign=top;spacingLeft=4;spacingRight=4;overflow=hidden;rotatable=0;points=[[0,0.5],[1,0.5]];portConstraint=eastwest;whiteSpace=wrap;html=1;" parent="CbinNUqj5bDb-ycrlaXT-0" vertex="1">
            <mxGeometry y="130" width="590" height="26" as="geometry" />
          </mxCell>
        </object>
        <object label="#&amp;nbsp;firstLevel: int" id="CbinNUqj5bDb-ycrlaXT-14">
          <mxCell style="text;strokeColor=none;fillColor=none;align=left;verticalAlign=top;spacingLeft=4;spacingRight=4;overflow=hidden;rotatable=0;points=[[0,0.5],[1,0.5]];portConstraint=eastwest;whiteSpace=wrap;html=1;" parent="CbinNUqj5bDb-ycrlaXT-0" vertex="1">
            <mxGeometry y="156" width="590" height="26" as="geometry" />
          </mxCell>
        </object>
        <object label="#&amp;nbsp;WTA_K: int" id="CbinNUqj5bDb-ycrlaXT-15">
          <mxCell style="text;strokeColor=none;fillColor=none;align=left;verticalAlign=top;spacingLeft=4;spacingRight=4;overflow=hidden;rotatable=0;points=[[0,0.5],[1,0.5]];portConstraint=eastwest;whiteSpace=wrap;html=1;" parent="CbinNUqj5bDb-ycrlaXT-0" vertex="1">
            <mxGeometry y="182" width="590" height="26" as="geometry" />
          </mxCell>
        </object>
        <object label="#&amp;nbsp;scoreType: int" id="CbinNUqj5bDb-ycrlaXT-16">
          <mxCell style="text;strokeColor=none;fillColor=none;align=left;verticalAlign=top;spacingLeft=4;spacingRight=4;overflow=hidden;rotatable=0;points=[[0,0.5],[1,0.5]];portConstraint=eastwest;whiteSpace=wrap;html=1;" parent="CbinNUqj5bDb-ycrlaXT-0" vertex="1">
            <mxGeometry y="208" width="590" height="26" as="geometry" />
          </mxCell>
        </object>
        <object label="#&amp;nbsp;patchSize: int" id="CbinNUqj5bDb-ycrlaXT-17">
          <mxCell style="text;strokeColor=none;fillColor=none;align=left;verticalAlign=top;spacingLeft=4;spacingRight=4;overflow=hidden;rotatable=0;points=[[0,0.5],[1,0.5]];portConstraint=eastwest;whiteSpace=wrap;html=1;" parent="CbinNUqj5bDb-ycrlaXT-0" vertex="1">
            <mxGeometry y="234" width="590" height="26" as="geometry" />
          </mxCell>
        </object>
        <mxCell id="CbinNUqj5bDb-ycrlaXT-2" value="" style="line;strokeWidth=1;fillColor=none;align=left;verticalAlign=middle;spacingTop=-1;spacingLeft=3;spacingRight=3;rotatable=0;labelPosition=right;points=[];portConstraint=eastwest;strokeColor=inherit;" parent="CbinNUqj5bDb-ycrlaXT-0" vertex="1">
          <mxGeometry y="260" width="590" height="8" as="geometry" />
        </mxCell>
        <mxCell id="CbinNUqj5bDb-ycrlaXT-23" value="&lt;p class=&quot;MsoNormal&quot;&gt;+ ORB(intnfeatures = 500, float scaleFactor = 1.2f, int nlevels = 8, int edgeThreshold =31,int firstLevel = 0, int WTA_K=2, int scoreType=ORB::HARRIS_SCORE, int patchSize=31 ): explicit&lt;/p&gt;" style="text;strokeColor=none;fillColor=none;align=left;verticalAlign=top;spacingLeft=4;spacingRight=4;overflow=hidden;rotatable=0;points=[[0,0.5],[1,0.5]];portConstraint=eastwest;whiteSpace=wrap;html=1;" parent="CbinNUqj5bDb-ycrlaXT-0" vertex="1">
          <mxGeometry y="268" width="590" height="48" as="geometry" />
        </mxCell>
        <mxCell id="CbinNUqj5bDb-ycrlaXT-9" value="+ descriptorSize() const: int" style="text;strokeColor=none;fillColor=none;align=left;verticalAlign=top;spacingLeft=4;spacingRight=4;overflow=hidden;rotatable=0;points=[[0,0.5],[1,0.5]];portConstraint=eastwest;whiteSpace=wrap;html=1;" parent="CbinNUqj5bDb-ycrlaXT-0" vertex="1">
          <mxGeometry y="316" width="590" height="26" as="geometry" />
        </mxCell>
        <mxCell id="CbinNUqj5bDb-ycrlaXT-18" value="+ descriptorType() const: int" style="text;strokeColor=none;fillColor=none;align=left;verticalAlign=top;spacingLeft=4;spacingRight=4;overflow=hidden;rotatable=0;points=[[0,0.5],[1,0.5]];portConstraint=eastwest;whiteSpace=wrap;html=1;" parent="CbinNUqj5bDb-ycrlaXT-0" vertex="1">
          <mxGeometry y="342" width="590" height="26" as="geometry" />
        </mxCell>
        <mxCell id="CbinNUqj5bDb-ycrlaXT-20" value="+ operator()(InputArray image, InputArray mask, vector&amp;lt;KeyPoint&amp;gt;&amp;amp; keypoints) const: int" style="text;strokeColor=none;fillColor=none;align=left;verticalAlign=top;spacingLeft=4;spacingRight=4;overflow=hidden;rotatable=0;points=[[0,0.5],[1,0.5]];portConstraint=eastwest;whiteSpace=wrap;html=1;" parent="CbinNUqj5bDb-ycrlaXT-0" vertex="1">
          <mxGeometry y="368" width="590" height="26" as="geometry" />
        </mxCell>
        <mxCell id="CbinNUqj5bDb-ycrlaXT-7" value="+ operator()(InputArray image, InputArray mask, vector&amp;lt;KeyPoint&amp;gt;&amp;amp; keypoints,OutputArray descriptors, bool useProvidedKeypoints=false) const: int" style="text;strokeColor=none;fillColor=none;align=left;verticalAlign=top;spacingLeft=4;spacingRight=4;overflow=hidden;rotatable=0;points=[[0,0.5],[1,0.5]];portConstraint=eastwest;whiteSpace=wrap;html=1;" parent="CbinNUqj5bDb-ycrlaXT-0" vertex="1">
          <mxGeometry y="394" width="590" height="40" as="geometry" />
        </mxCell>
        <mxCell id="CbinNUqj5bDb-ycrlaXT-6" value="# computeImpl( const Mat&amp;amp; image, vector&amp;lt;KeyPoint&amp;gt;&amp;amp; keypoints, Mat&amp;amp; descriptors) const: void" style="text;strokeColor=none;fillColor=none;align=left;verticalAlign=top;spacingLeft=4;spacingRight=4;overflow=hidden;rotatable=0;points=[[0,0.5],[1,0.5]];portConstraint=eastwest;whiteSpace=wrap;html=1;" parent="CbinNUqj5bDb-ycrlaXT-0" vertex="1">
          <mxGeometry y="434" width="590" height="26" as="geometry" />
        </mxCell>
        <mxCell id="CbinNUqj5bDb-ycrlaXT-3" value="# detectImpl( const Mat&amp;amp; image, vector&amp;lt;KeyPoint&amp;gt;&amp;amp; keypoints, const Mat&amp;amp; mask=Mat() ) const: void" style="text;strokeColor=none;fillColor=none;align=left;verticalAlign=top;spacingLeft=4;spacingRight=4;overflow=hidden;rotatable=0;points=[[0,0.5],[1,0.5]];portConstraint=eastwest;whiteSpace=wrap;html=1;" parent="CbinNUqj5bDb-ycrlaXT-0" vertex="1">
          <mxGeometry y="460" width="590" height="26" as="geometry" />
        </mxCell>
        <mxCell id="CbinNUqj5bDb-ycrlaXT-26" value="SIFT" style="swimlane;fontStyle=1;align=center;verticalAlign=top;childLayout=stackLayout;horizontal=1;startSize=26;horizontalStack=0;resizeParent=1;resizeParentMax=0;resizeLast=0;collapsible=1;marginBottom=0;whiteSpace=wrap;html=1;" parent="WIyWlLk6GJQsqaUBKTNV-1" vertex="1">
          <mxGeometry x="1270" y="930" width="570" height="462" as="geometry" />
        </mxCell>
        <mxCell id="CbinNUqj5bDb-ycrlaXT-27" value="# nfeatures: int" style="text;strokeColor=none;fillColor=none;align=left;verticalAlign=top;spacingLeft=4;spacingRight=4;overflow=hidden;rotatable=0;points=[[0,0.5],[1,0.5]];portConstraint=eastwest;whiteSpace=wrap;html=1;" parent="CbinNUqj5bDb-ycrlaXT-26" vertex="1">
          <mxGeometry y="26" width="570" height="26" as="geometry" />
        </mxCell>
        <mxCell id="CbinNUqj5bDb-ycrlaXT-39" value="#&amp;nbsp;nOctaveLayers: int" style="text;strokeColor=none;fillColor=none;align=left;verticalAlign=top;spacingLeft=4;spacingRight=4;overflow=hidden;rotatable=0;points=[[0,0.5],[1,0.5]];portConstraint=eastwest;whiteSpace=wrap;html=1;" parent="CbinNUqj5bDb-ycrlaXT-26" vertex="1">
          <mxGeometry y="52" width="570" height="26" as="geometry" />
        </mxCell>
        <mxCell id="CbinNUqj5bDb-ycrlaXT-40" value="#&amp;nbsp;contrastThreshold:&amp;nbsp;double&amp;nbsp;" style="text;strokeColor=none;fillColor=none;align=left;verticalAlign=top;spacingLeft=4;spacingRight=4;overflow=hidden;rotatable=0;points=[[0,0.5],[1,0.5]];portConstraint=eastwest;whiteSpace=wrap;html=1;" parent="CbinNUqj5bDb-ycrlaXT-26" vertex="1">
          <mxGeometry y="78" width="570" height="26" as="geometry" />
        </mxCell>
        <mxCell id="CbinNUqj5bDb-ycrlaXT-41" value="#&amp;nbsp;edgeThreshold:&amp;nbsp;double&amp;nbsp;" style="text;strokeColor=none;fillColor=none;align=left;verticalAlign=top;spacingLeft=4;spacingRight=4;overflow=hidden;rotatable=0;points=[[0,0.5],[1,0.5]];portConstraint=eastwest;whiteSpace=wrap;html=1;" parent="CbinNUqj5bDb-ycrlaXT-26" vertex="1">
          <mxGeometry y="104" width="570" height="26" as="geometry" />
        </mxCell>
        <mxCell id="CbinNUqj5bDb-ycrlaXT-42" value="#&amp;nbsp;sigma:&amp;nbsp;double&amp;nbsp;" style="text;strokeColor=none;fillColor=none;align=left;verticalAlign=top;spacingLeft=4;spacingRight=4;overflow=hidden;rotatable=0;points=[[0,0.5],[1,0.5]];portConstraint=eastwest;whiteSpace=wrap;html=1;" parent="CbinNUqj5bDb-ycrlaXT-26" vertex="1">
          <mxGeometry y="130" width="570" height="26" as="geometry" />
        </mxCell>
        <mxCell id="CbinNUqj5bDb-ycrlaXT-28" value="" style="line;strokeWidth=1;fillColor=none;align=left;verticalAlign=middle;spacingTop=-1;spacingLeft=3;spacingRight=3;rotatable=0;labelPosition=right;points=[];portConstraint=eastwest;strokeColor=inherit;" parent="CbinNUqj5bDb-ycrlaXT-26" vertex="1">
          <mxGeometry y="156" width="570" height="8" as="geometry" />
        </mxCell>
        <mxCell id="CbinNUqj5bDb-ycrlaXT-29" value="+ descriptorSize() const: int" style="text;strokeColor=none;fillColor=none;align=left;verticalAlign=top;spacingLeft=4;spacingRight=4;overflow=hidden;rotatable=0;points=[[0,0.5],[1,0.5]];portConstraint=eastwest;whiteSpace=wrap;html=1;" parent="CbinNUqj5bDb-ycrlaXT-26" vertex="1">
          <mxGeometry y="164" width="570" height="26" as="geometry" />
        </mxCell>
        <mxCell id="CbinNUqj5bDb-ycrlaXT-34" value="+ descriptorType() const: int" style="text;strokeColor=none;fillColor=none;align=left;verticalAlign=top;spacingLeft=4;spacingRight=4;overflow=hidden;rotatable=0;points=[[0,0.5],[1,0.5]];portConstraint=eastwest;whiteSpace=wrap;html=1;" parent="CbinNUqj5bDb-ycrlaXT-26" vertex="1">
          <mxGeometry y="190" width="570" height="26" as="geometry" />
        </mxCell>
        <mxCell id="CbinNUqj5bDb-ycrlaXT-35" value="+ operator()(InputArray image, InputArray mask, vector&amp;lt;KeyPoint&amp;gt;&amp;amp; keypoints) const: int" style="text;strokeColor=none;fillColor=none;align=left;verticalAlign=top;spacingLeft=4;spacingRight=4;overflow=hidden;rotatable=0;points=[[0,0.5],[1,0.5]];portConstraint=eastwest;whiteSpace=wrap;html=1;" parent="CbinNUqj5bDb-ycrlaXT-26" vertex="1">
          <mxGeometry y="216" width="570" height="26" as="geometry" />
        </mxCell>
        <mxCell id="CbinNUqj5bDb-ycrlaXT-36" value="+ operator()(InputArray image, InputArray mask, vector&amp;lt;KeyPoint&amp;gt;&amp;amp; keypoints,OutputArray descriptors, bool useProvidedKeypoints=false) const: int" style="text;strokeColor=none;fillColor=none;align=left;verticalAlign=top;spacingLeft=4;spacingRight=4;overflow=hidden;rotatable=0;points=[[0,0.5],[1,0.5]];portConstraint=eastwest;whiteSpace=wrap;html=1;" parent="CbinNUqj5bDb-ycrlaXT-26" vertex="1">
          <mxGeometry y="242" width="570" height="42" as="geometry" />
        </mxCell>
        <mxCell id="CbinNUqj5bDb-ycrlaXT-48" value="+&amp;nbsp;SIFT(int nfeatures=0, int nOctaveLayers=3,double contrastThreshold=0.04, double&lt;br&gt;edgeThreshold=10,double sigma=1.6): explicit" style="text;strokeColor=none;fillColor=none;align=left;verticalAlign=top;spacingLeft=4;spacingRight=4;overflow=hidden;rotatable=0;points=[[0,0.5],[1,0.5]];portConstraint=eastwest;whiteSpace=wrap;html=1;" parent="CbinNUqj5bDb-ycrlaXT-26" vertex="1">
          <mxGeometry y="284" width="570" height="42" as="geometry" />
        </mxCell>
        <mxCell id="CbinNUqj5bDb-ycrlaXT-43" value="+&amp;nbsp;buildGaussianPyramid(const Mat&amp;amp; base, vector&amp;lt;Mat&amp;gt;&amp;amp; pyr, int nOctaves ) const: void" style="text;strokeColor=none;fillColor=none;align=left;verticalAlign=top;spacingLeft=4;spacingRight=4;overflow=hidden;rotatable=0;points=[[0,0.5],[1,0.5]];portConstraint=eastwest;whiteSpace=wrap;html=1;" parent="CbinNUqj5bDb-ycrlaXT-26" vertex="1">
          <mxGeometry y="326" width="570" height="26" as="geometry" />
        </mxCell>
        <mxCell id="CbinNUqj5bDb-ycrlaXT-46" value="+&amp;nbsp;buildGaussianPyramid(const Mat&amp;amp; base, vector&amp;lt;Mat&amp;gt;&amp;amp; pyr, int nOctaves ) const: void" style="text;strokeColor=none;fillColor=none;align=left;verticalAlign=top;spacingLeft=4;spacingRight=4;overflow=hidden;rotatable=0;points=[[0,0.5],[1,0.5]];portConstraint=eastwest;whiteSpace=wrap;html=1;" parent="CbinNUqj5bDb-ycrlaXT-26" vertex="1">
          <mxGeometry y="352" width="570" height="26" as="geometry" />
        </mxCell>
        <mxCell id="CbinNUqj5bDb-ycrlaXT-47" value="+&amp;nbsp;findScaleSpaceExtrema(const vector&amp;lt;Mat&amp;gt;&amp;amp; gauss_pyr, const vector&amp;lt;Mat&amp;gt;&amp;amp; dog_pyr,vector&amp;lt;KeyPoint&amp;gt;&amp;amp;keypoints ) const: void" style="text;strokeColor=none;fillColor=none;align=left;verticalAlign=top;spacingLeft=4;spacingRight=4;overflow=hidden;rotatable=0;points=[[0,0.5],[1,0.5]];portConstraint=eastwest;whiteSpace=wrap;html=1;" parent="CbinNUqj5bDb-ycrlaXT-26" vertex="1">
          <mxGeometry y="378" width="570" height="34" as="geometry" />
        </mxCell>
        <mxCell id="CbinNUqj5bDb-ycrlaXT-37" value="# computeImpl( const Mat&amp;amp; image, vector&amp;lt;KeyPoint&amp;gt;&amp;amp; keypoints, Mat&amp;amp; descriptors) const: void" style="text;strokeColor=none;fillColor=none;align=left;verticalAlign=top;spacingLeft=4;spacingRight=4;overflow=hidden;rotatable=0;points=[[0,0.5],[1,0.5]];portConstraint=eastwest;whiteSpace=wrap;html=1;" parent="CbinNUqj5bDb-ycrlaXT-26" vertex="1">
          <mxGeometry y="412" width="570" height="20" as="geometry" />
        </mxCell>
        <mxCell id="CbinNUqj5bDb-ycrlaXT-38" value="# detectImpl( const Mat&amp;amp; image, vector&amp;lt;KeyPoint&amp;gt;&amp;amp; keypoints, const Mat&amp;amp; mask=Mat() ) const: void" style="text;strokeColor=none;fillColor=none;align=left;verticalAlign=top;spacingLeft=4;spacingRight=4;overflow=hidden;rotatable=0;points=[[0,0.5],[1,0.5]];portConstraint=eastwest;whiteSpace=wrap;html=1;" parent="CbinNUqj5bDb-ycrlaXT-26" vertex="1">
          <mxGeometry y="432" width="570" height="30" as="geometry" />
        </mxCell>
        <mxCell id="CbinNUqj5bDb-ycrlaXT-61" value="" style="endArrow=block;dashed=1;endFill=0;endSize=12;html=1;rounded=0;fontFamily=Helvetica;fontSize=12;fontColor=default;entryX=1;entryY=0.5;entryDx=0;entryDy=0;exitX=0.967;exitY=-0.001;exitDx=0;exitDy=0;exitPerimeter=0;" parent="WIyWlLk6GJQsqaUBKTNV-1" source="CbinNUqj5bDb-ycrlaXT-26" target="6x0onaPDvPLNviay9bBa-51" edge="1">
          <mxGeometry width="160" relative="1" as="geometry">
            <mxPoint x="1420" y="569.41" as="sourcePoint" />
            <mxPoint x="1580" y="569.41" as="targetPoint" />
            <Array as="points">
              <mxPoint x="1820" y="367" />
            </Array>
          </mxGeometry>
        </mxCell>
        <mxCell id="CbinNUqj5bDb-ycrlaXT-69" value="" style="endArrow=block;dashed=1;endFill=0;endSize=12;html=1;rounded=0;fontFamily=Helvetica;fontSize=12;fontColor=default;exitX=0.5;exitY=0;exitDx=0;exitDy=0;entryX=0.372;entryY=1.182;entryDx=0;entryDy=0;entryPerimeter=0;" parent="WIyWlLk6GJQsqaUBKTNV-1" source="zkfFHV4jXpPFQw0GAbJ--6" target="-PGbvV9lR7qu6nxP3S9m-3" edge="1">
          <mxGeometry width="160" relative="1" as="geometry">
            <mxPoint x="310" y="380" as="sourcePoint" />
            <mxPoint x="470" y="380" as="targetPoint" />
          </mxGeometry>
        </mxCell>
        <mxCell id="CbinNUqj5bDb-ycrlaXT-70" value="" style="endArrow=block;dashed=1;endFill=0;endSize=12;html=1;rounded=0;fontFamily=Helvetica;fontSize=12;fontColor=default;" parent="WIyWlLk6GJQsqaUBKTNV-1" edge="1">
          <mxGeometry width="160" relative="1" as="geometry">
            <mxPoint x="560" y="645" as="sourcePoint" />
            <mxPoint x="620" y="336" as="targetPoint" />
            <Array as="points">
              <mxPoint x="620" y="645" />
              <mxPoint x="620" y="486" />
            </Array>
          </mxGeometry>
        </mxCell>
        <mxCell id="CbinNUqj5bDb-ycrlaXT-71" value="" style="endArrow=block;dashed=1;endFill=0;endSize=12;html=1;rounded=0;fontFamily=Helvetica;fontSize=12;fontColor=default;exitX=0.559;exitY=0;exitDx=0;exitDy=0;exitPerimeter=0;" parent="WIyWlLk6GJQsqaUBKTNV-1" source="CbinNUqj5bDb-ycrlaXT-0" edge="1">
          <mxGeometry width="160" relative="1" as="geometry">
            <mxPoint x="710" y="570" as="sourcePoint" />
            <mxPoint x="960" y="420" as="targetPoint" />
            <Array as="points" />
          </mxGeometry>
        </mxCell>
        <mxCell id="CbinNUqj5bDb-ycrlaXT-73" value="" style="endArrow=block;endSize=16;endFill=0;html=1;rounded=0;fontFamily=Helvetica;fontSize=12;fontColor=default;entryX=1.003;entryY=0.099;entryDx=0;entryDy=0;entryPerimeter=0;exitX=0;exitY=0.18;exitDx=0;exitDy=0;exitPerimeter=0;" parent="WIyWlLk6GJQsqaUBKTNV-1" source="6x0onaPDvPLNviay9bBa-36" target="zkfFHV4jXpPFQw0GAbJ--0" edge="1">
          <mxGeometry width="160" relative="1" as="geometry">
            <mxPoint x="670" y="540" as="sourcePoint" />
            <mxPoint x="830" y="540" as="targetPoint" />
            <Array as="points" />
          </mxGeometry>
        </mxCell>
        <mxCell id="CbinNUqj5bDb-ycrlaXT-75" value="" style="endArrow=block;endSize=16;endFill=0;html=1;rounded=0;fontFamily=Helvetica;fontSize=12;fontColor=default;entryX=1;entryY=0.5;entryDx=0;entryDy=0;exitX=0.435;exitY=-0.02;exitDx=0;exitDy=0;exitPerimeter=0;" parent="WIyWlLk6GJQsqaUBKTNV-1" source="6x0onaPDvPLNviay9bBa-44" target="-PGbvV9lR7qu6nxP3S9m-1" edge="1">
          <mxGeometry width="160" relative="1" as="geometry">
            <mxPoint x="670" y="540" as="sourcePoint" />
            <mxPoint x="830" y="540" as="targetPoint" />
            <Array as="points">
              <mxPoint x="1129" y="280" />
            </Array>
          </mxGeometry>
        </mxCell>
      </root>
    </mxGraphModel>
  </diagram>
</mxfile>
